<svg width="24" height="20" viewBox="0 0 24 20" fill="none" xmlns="http://www.w3.org/2000/svg">
<g clip-path="url(#clip0_1029_1548)">
<path d="M20.7941 14.2444C20.2738 13.3481 19.5004 10.8122 19.5004 7.5C19.5004 5.51088 18.7102 3.60322 17.3037 2.1967C15.8972 0.790176 13.9895 0 12.0004 0C10.0113 0 8.1036 0.790176 6.69708 2.1967C5.29055 3.60322 4.50038 5.51088 4.50038 7.5C4.50038 10.8131 3.726 13.3481 3.20569 14.2444C3.07282 14.4722 3.00238 14.7311 3.00147 14.9949C3.00057 15.2586 3.06923 15.518 3.20053 15.7467C3.33184 15.9755 3.52114 16.1656 3.74935 16.2978C3.97756 16.4301 4.23661 16.4998 4.50038 16.5H8.32632C8.49935 17.3467 8.95953 18.1077 9.629 18.6542C10.2985 19.2007 11.1362 19.4992 12.0004 19.4992C12.8646 19.4992 13.7023 19.2007 14.3718 18.6542C15.0412 18.1077 15.5014 17.3467 15.6744 16.5H19.5004C19.7641 16.4996 20.023 16.4298 20.2511 16.2975C20.4792 16.1651 20.6683 15.975 20.7995 15.7463C20.9307 15.5176 20.9993 15.2583 20.9983 14.9946C20.9974 14.7309 20.927 14.4722 20.7941 14.2444ZM12.0004 18C11.5352 17.9999 11.0815 17.8555 10.7018 17.5869C10.322 17.3183 10.0348 16.9386 9.87975 16.5H14.121C13.9659 16.9386 13.6788 17.3183 13.299 17.5869C12.9192 17.8555 12.4655 17.9999 12.0004 18ZM4.50038 15C5.22225 13.7587 6.00038 10.8825 6.00038 7.5C6.00038 5.9087 6.63252 4.38258 7.75774 3.25736C8.88296 2.13214 10.4091 1.5 12.0004 1.5C13.5917 1.5 15.1178 2.13214 16.243 3.25736C17.3682 4.38258 18.0004 5.9087 18.0004 7.5C18.0004 10.8797 18.7766 13.7559 19.5004 15H4.50038Z" fill="#A2A2A2"/>
</g>
<defs>
<clipPath id="clip0_1029_1548">
<rect width="24" height="19.4992" fill="white"/>
</clipPath>
</defs>
</svg>
