<svg width="16" height="16" viewBox="0 0 16 16" fill="none" xmlns="http://www.w3.org/2000/svg">
<path d="M5.80921 9.33334H3.33588C3.1961 9.3334 3.05987 9.3774 2.94646 9.45911C2.83305 9.54082 2.74819 9.65611 2.70388 9.78868L1.36788 13.7887C1.33439 13.8889 1.32519 13.9956 1.34105 14.1001C1.35691 14.2045 1.39737 14.3037 1.45909 14.3895C1.52082 14.4752 1.60204 14.5451 1.69607 14.5933C1.79009 14.6415 1.89422 14.6666 1.99988 14.6667H13.9999C14.1055 14.6666 14.2095 14.6414 14.3035 14.5933C14.3974 14.5451 14.4786 14.4753 14.5403 14.3897C14.602 14.304 14.6425 14.2049 14.6584 14.1005C14.6743 13.9962 14.6652 13.8895 14.6319 13.7893L13.2985 9.78934C13.2543 9.65654 13.1694 9.54103 13.0558 9.45918C12.9423 9.37734 12.8059 9.33331 12.6659 9.33334H10.1912M11.9999 5.33334C11.9999 7.74201 9.42055 10.286 8.40455 11.1967C8.28832 11.2855 8.14613 11.3335 7.99988 11.3335C7.85363 11.3335 7.71144 11.2855 7.59521 11.1967C6.57988 10.286 3.99988 7.74201 3.99988 5.33334C3.99988 4.27248 4.42131 3.25506 5.17145 2.50492C5.9216 1.75477 6.93901 1.33334 7.99988 1.33334C9.06074 1.33334 10.0782 1.75477 10.8283 2.50492C11.5785 3.25506 11.9999 4.27248 11.9999 5.33334ZM9.33321 5.33334C9.33321 6.06972 8.73626 6.66668 7.99988 6.66668C7.2635 6.66668 6.66655 6.06972 6.66655 5.33334C6.66655 4.59696 7.2635 4.00001 7.99988 4.00001C8.73626 4.00001 9.33321 4.59696 9.33321 5.33334Z" stroke="#1E88E5" stroke-linecap="round" stroke-linejoin="round"/>
</svg>
