<svg width="17" height="16" viewBox="0 0 17 16" fill="none" xmlns="http://www.w3.org/2000/svg">
<path d="M15.4206 14.1481C14.3965 12.307 12.8183 10.9867 10.9766 10.3609C11.8876 9.79691 12.5954 8.93752 12.9913 7.91471C13.3872 6.89191 13.4493 5.76223 13.168 4.69918C12.8868 3.63612 12.2778 2.69846 11.4345 2.03019C10.5912 1.36192 9.56024 1 8.5 1C7.43976 1 6.40884 1.36192 5.56554 2.03019C4.72225 2.69846 4.11321 3.63612 3.83196 4.69918C3.55072 5.76223 3.61281 6.89191 4.00871 7.91471C4.40461 8.93752 5.11242 9.79691 6.02345 10.3609C4.18167 10.986 2.60348 12.3063 1.57937 14.1481C1.54182 14.2118 1.5169 14.2827 1.50611 14.3565C1.49531 14.4304 1.49885 14.5057 1.51652 14.5781C1.53418 14.6505 1.56561 14.7185 1.60895 14.7781C1.6523 14.8377 1.70667 14.8876 1.76888 14.925C1.83108 14.9624 1.89985 14.9864 1.97113 14.9957C2.04241 15.0049 2.11476 14.9993 2.1839 14.979C2.25304 14.9587 2.31758 14.9243 2.3737 14.8777C2.42983 14.831 2.4764 14.7732 2.51068 14.7075C3.77754 12.4307 6.01672 11.0713 8.5 11.0713C10.9833 11.0713 13.2225 12.4307 14.4893 14.7075C14.5236 14.7732 14.5702 14.831 14.6263 14.8777C14.6824 14.9243 14.747 14.9587 14.8161 14.979C14.8852 14.9993 14.9576 15.0049 15.0289 14.9957C15.1001 14.9864 15.1689 14.9624 15.2311 14.925C15.2933 14.8876 15.3477 14.8377 15.391 14.7781C15.4344 14.7185 15.4658 14.6505 15.4835 14.5781C15.5011 14.5057 15.5047 14.4304 15.4939 14.3565C15.4831 14.2827 15.4582 14.2118 15.4206 14.1481ZM4.7344 6.03663C4.7344 5.26214 4.95525 4.50504 5.36902 3.86107C5.78279 3.21711 6.3709 2.71519 7.05897 2.41881C7.74704 2.12242 8.50418 2.04488 9.23463 2.19597C9.96509 2.34707 10.6361 2.72002 11.1627 3.26767C11.6893 3.81532 12.0479 4.51306 12.1932 5.27267C12.3385 6.03228 12.264 6.81964 11.979 7.53517C11.6939 8.25071 11.2113 8.86229 10.5921 9.29257C9.9728 9.72286 9.24476 9.95252 8.5 9.95252C7.50163 9.95141 6.54446 9.53849 5.8385 8.80436C5.13255 8.07022 4.73547 7.07485 4.7344 6.03663Z" fill="#1E88E5"/>
</svg>
