<svg width="214" height="214" viewBox="0 0 214 214" fill="none" xmlns="http://www.w3.org/2000/svg">
<path d="M181.097 178.691C175.738 184.214 170.944 187.461 167.273 189.912C131.471 213.817 90.5459 206.927 77.8928 204.572C57.4786 200.773 40.2462 198.092 25.4405 184.716C-8.20256 154.321 -6.56619 90.9142 19.1412 51.6366C22.1893 46.9794 47.8578 8.93084 88.8716 3.56946C89.8747 3.43834 90.6232 3.36368 91.2788 3.29426C97.6236 2.62247 136.941 -0.922911 169 25.9363C173.589 29.781 180.974 36.7161 187.823 47.293C212.864 85.967 212.943 145.865 181.097 178.691Z" fill="url(#paint0_linear_1029_1737)"/>
<path d="M164.709 177.01C154.423 174.999 146.549 159.642 147.298 146.712C148.068 133.406 157.454 131.562 164.049 115.373C171.542 96.9825 163.128 90.2839 166.996 62.9308C167.868 56.7594 172.918 21.0461 185.636 19.1961C197.395 17.4855 217.335 44.4879 213.523 66.9773C210.805 83.0133 198.011 84.9509 194.898 103.65C192.166 120.057 201.113 123.992 198.622 139.881C195.591 159.225 178.215 179.65 164.709 177.01Z" fill="#BDD0FB"/>
<path d="M162.188 181.175C172.892 162.443 180.455 129.862 184.915 105.828C189.743 79.8073 192.076 57.9219 192.099 57.7039L191.212 57.6105C191.189 57.8282 188.859 79.6845 184.037 105.672C179.59 129.636 172.056 162.111 161.414 180.732L162.188 181.175Z" fill="#F0F0F0"/>
<path d="M118.202 137.18C100.719 132.068 89.6699 104.793 96.8489 93.7912C101.7 86.3578 111.727 91.1747 118.866 83.0504C127.981 72.6775 116.994 58.7277 121.453 36.9241C125.247 18.3689 139.284 -1.26159 150.026 0.0635622C161.27 1.45065 171.953 26.1762 166.024 43.5086C162.169 54.78 153.295 57.0566 153.214 66.8445C153.12 78.2017 165.019 81.0116 167.177 91.5761C171.053 110.553 141.332 143.943 118.202 137.18Z" fill="#91B3FA"/>
<path d="M128.194 142.744C128.099 142.763 127.999 142.761 127.9 142.735C127.548 142.643 127.338 142.283 127.43 141.932C139.848 94.4769 136.044 43.0379 136.005 42.5238C135.976 42.1615 136.248 41.8446 136.61 41.817C136.972 41.7889 137.288 42.0598 137.316 42.4221C137.356 42.9384 141.176 94.5983 128.703 142.265C128.637 142.517 128.433 142.696 128.194 142.744Z" fill="url(#paint1_linear_1029_1737)"/>
<path d="M155.037 52.2642C154.971 52.2774 154.9 52.2693 154.835 52.2368C154.68 52.1587 154.617 51.9698 154.695 51.8146C159.637 41.9877 164.449 27.7428 159.307 15.6842C156.245 8.50263 151.034 5.47386 150.982 5.44416C150.831 5.35824 150.779 5.1665 150.864 5.01548C150.95 4.86446 151.142 4.81163 151.293 4.89786C151.514 5.02342 156.741 8.06268 159.885 15.4377C162.776 22.2157 164.319 34.0779 155.257 52.0969C155.212 52.187 155.129 52.246 155.037 52.2642Z" fill="#F0F0F0"/>
<path d="M116.024 133.683C115.925 133.703 115.819 133.675 115.742 133.6C102.602 120.75 96.8466 109.948 98.6377 101.494C100.23 93.9788 107.465 91.2034 107.538 91.176C107.702 91.1164 107.882 91.1984 107.943 91.3609C108.003 91.5233 107.921 91.7046 107.758 91.7653C107.688 91.7914 100.767 94.456 99.2513 101.633C97.5134 109.861 103.21 120.464 116.182 133.15C116.306 133.271 116.309 133.47 116.187 133.595C116.141 133.642 116.084 133.671 116.024 133.683Z" fill="#F0F0F0"/>
<path d="M30.3096 103.814C30.3096 145.347 65.2523 179.017 108.356 179.017C151.46 179.017 188.333 143.876 188.333 102.343C188.333 60.8095 151.46 28.6113 108.356 28.6113C65.2523 28.6113 30.3096 62.2808 30.3096 103.814Z" fill="url(#paint2_linear_1029_1737)"/>
<path d="M182.206 85.5285C182.252 85.5285 182.298 85.5234 182.345 85.5113C182.633 85.4373 182.804 85.1532 182.727 84.8754C181.887 81.8367 180.815 78.8222 179.538 75.9165C179.422 75.6528 179.104 75.5321 178.832 75.6407C178.558 75.7532 178.43 76.0573 178.546 76.3222C179.803 79.1823 180.859 82.15 181.685 85.1431C181.749 85.3754 181.968 85.5285 182.206 85.5285Z" fill="#BDD0FB"/>
<path d="M170.279 62.0272C170.392 62.0272 170.506 61.9927 170.603 61.9228C170.841 61.7503 170.888 61.4239 170.709 61.1956C156.249 42.7189 132.957 31.689 108.402 31.689C97.916 31.689 87.773 33.7378 78.2564 37.7765C77.9843 37.8922 77.8607 38.1996 77.9807 38.4612C78.1001 38.7238 78.4187 38.8425 78.6913 38.7279C88.07 34.7461 98.0667 32.7275 108.403 32.7275C132.621 32.7275 155.59 43.6033 169.848 61.8203C169.954 61.9563 170.115 62.0272 170.279 62.0272Z" fill="#BDD0FB"/>
<path d="M40.928 103.814C40.928 139.766 71.1748 168.91 108.486 168.91C145.797 168.91 177.715 138.492 177.715 102.541C177.715 66.589 145.797 38.7177 108.486 38.7177C71.1748 38.7177 40.928 67.8624 40.928 103.814Z" fill="#BDD0FB"/>
<path d="M40.9282 103.814C40.9282 67.8624 71.1748 38.7178 108.486 38.7178C128.69 38.7178 147.309 46.8933 160.139 60.0958L108.097 101.82L97.3987 168.033C65.3631 162.935 40.9282 136.127 40.9282 103.814Z" fill="#BDD0FB"/>
<path d="M50.1235 99.2885C50.1235 131.734 77.9878 158.037 112.36 158.037C146.732 158.037 176.136 130.585 176.136 98.1393C176.136 65.6936 146.732 40.5404 112.36 40.5404C77.9879 40.5405 50.1235 66.8429 50.1235 99.2885Z" fill="#91B3FA"/>
<path d="M160.45 100.438C160.617 103.201 163.077 105.311 165.945 105.15C168.813 104.989 171.002 102.619 170.835 99.8554C170.668 97.0923 168.208 94.9825 165.34 95.1434C162.473 95.3041 160.283 97.6744 160.45 100.438Z" fill="url(#paint3_linear_1029_1737)"/>
<path opacity="0.78" d="M48.0807 106.74C48.2475 109.503 50.7077 111.613 53.5753 111.452C56.4431 111.291 58.6326 108.921 58.4657 106.157C58.2988 103.394 55.8387 101.284 52.971 101.445C50.1032 101.606 47.9137 103.977 48.0807 106.74Z" fill="white"/>
<path d="M118.636 151.714C115.81 152.211 113.938 154.822 114.454 157.545C114.97 160.268 117.679 162.072 120.505 161.574C123.331 161.077 125.203 158.467 124.687 155.744C124.171 153.021 121.462 151.217 118.636 151.714Z" fill="url(#paint4_linear_1029_1737)"/>
<path d="M98.411 45.0208C95.5851 45.5182 93.7127 48.1286 94.2289 50.8515C94.745 53.5744 97.4541 55.3784 100.28 54.8811C103.106 54.3838 104.978 51.7733 104.462 49.0505C103.946 46.3276 101.237 44.5236 98.411 45.0208Z" fill="url(#paint5_linear_1029_1737)"/>
<path opacity="0.78" d="M81.6578 154.579C81.1291 155.864 81.2612 157.067 81.9527 157.266C82.6442 157.465 83.6333 156.585 84.1618 155.3C84.6903 154.015 84.5582 152.812 83.8668 152.613C83.1754 152.413 82.1862 153.294 81.6578 154.579Z" fill="white"/>
<path d="M126.864 53.3801C126.336 54.665 126.468 55.8682 127.159 56.0674C127.851 56.2668 128.84 55.3865 129.368 54.1017C129.897 52.8167 129.765 51.6134 129.073 51.4141C128.382 51.2151 127.393 52.0953 126.864 53.3801Z" fill="url(#paint6_linear_1029_1737)"/>
<path opacity="0.78" d="M58.0542 135.341C56.9101 136.175 56.3746 137.269 56.8582 137.785C57.3419 138.302 58.6614 138.044 59.8056 137.211C60.9498 136.377 61.4851 135.282 61.0015 134.766C60.5179 134.25 59.1983 134.507 58.0542 135.341Z" fill="white"/>
<path d="M151.221 71.4696C150.077 72.3033 149.541 73.3977 150.025 73.9139C150.508 74.4303 151.828 74.1729 152.972 73.3392C154.116 72.5055 154.652 71.411 154.168 70.8947C153.684 70.3785 152.365 70.636 151.221 71.4696Z" fill="url(#paint7_linear_1029_1737)"/>
<path opacity="0.78" d="M55.0895 78.041C53.7944 77.4468 52.5396 77.4932 52.2871 78.1448C52.0344 78.7962 52.8795 79.806 54.1746 80.4003C55.4698 80.9945 56.7246 80.9481 56.9772 80.2965C57.2298 79.6451 56.3847 78.6353 55.0895 78.041Z" fill="white"/>
<path opacity="0.78" d="M156.852 128.28C155.556 127.686 154.302 127.732 154.049 128.384C153.796 129.035 154.642 130.045 155.937 130.639C157.232 131.233 158.487 131.187 158.739 130.535C158.992 129.884 158.147 128.874 156.852 128.28Z" fill="white"/>
<path d="M76.5906 56.6369C75.804 55.481 74.7066 54.8929 74.1396 55.3233C73.5726 55.7538 73.7509 57.0396 74.5374 58.1956C75.3241 59.3513 76.4217 59.9394 76.9883 59.509C77.5554 59.0785 77.3772 57.7926 76.5906 56.6369Z" fill="#91B3FA"/>
<path d="M136.489 150.485C135.702 149.329 134.605 148.741 134.038 149.171C133.471 149.602 133.649 150.887 134.436 152.043C135.222 153.199 136.32 153.787 136.887 153.357C137.454 152.926 137.275 151.641 136.489 150.485Z" fill="url(#paint8_linear_1029_1737)"/>
<path d="M110.59 101.797L152.373 121.876C153.182 122.265 154.13 121.681 154.102 120.81L153.938 115.627C153.906 114.619 155.138 114.061 155.924 114.727L186.135 140.357C187.059 141.141 186.299 142.597 185.094 142.349L146.185 134.344C145.254 134.152 144.917 133.04 145.595 132.396L150.15 128.068C150.713 127.533 150.592 126.628 149.907 126.248L109.46 103.827C108.896 103.515 108.695 102.826 109.006 102.276C109.314 101.732 110.014 101.52 110.59 101.797Z" fill="url(#paint9_linear_1029_1737)"/>
<path opacity="0.72" d="M181.437 140.237C181.825 140.237 182.177 140.028 182.354 139.676C182.566 139.255 182.457 138.774 182.083 138.476L175.472 133.21C175.243 133.027 174.902 133.058 174.714 133.279C174.524 133.501 174.556 133.827 174.786 134.011L181.397 139.277C172.588 137.338 151.957 133.007 151.529 132.965C151.24 132.933 150.969 133.143 150.938 133.429C150.909 133.711 151.118 133.962 151.408 133.997C152.026 134.092 167.836 137.403 181.208 140.213C181.285 140.229 181.361 140.237 181.437 140.237Z" fill="white"/>
<path d="M106.231 99.8193L106.314 60.4547C106.301 59.5831 105.326 59.0414 104.536 59.4657L99.8361 61.99C98.9218 62.481 97.8402 61.6836 98.093 60.7049L107.814 23.068C108.111 21.9168 109.803 21.8972 110.128 23.0416L120.65 60.0137C120.902 60.8984 120.032 61.6983 119.126 61.4144L113.042 59.5082C112.29 59.2725 111.512 59.7923 111.478 60.5535L108.622 99.8525C108.594 100.478 108.052 100.967 107.402 100.954C106.759 100.941 106.241 100.439 106.231 99.8193Z" fill="url(#paint10_linear_1029_1737)"/>
<path opacity="0.72" d="M117.421 56.4042C117.487 56.4042 117.554 56.393 117.618 56.3687C117.892 56.2652 118.028 55.9701 117.927 55.7053C117.731 55.1354 113.509 40.0849 109.947 27.35C109.821 26.8996 109.424 26.6035 108.927 26.6147C108.441 26.6268 108.046 26.9421 107.944 27.3996L106.132 35.4781C106.07 35.7581 106.254 36.0351 106.545 36.0949C106.833 36.1567 107.122 35.9782 107.186 35.6973L108.998 27.6188C111.264 36.0473 116.763 55.6882 116.92 56.0746C117.003 56.2795 117.206 56.4042 117.421 56.4042Z" fill="white"/>
<path d="M108.835 107.282C111.903 107.282 114.39 104.886 114.39 101.93C114.39 98.9736 111.903 96.5771 108.835 96.5771C105.767 96.5771 103.28 98.9736 103.28 101.93C103.28 104.886 105.767 107.282 108.835 107.282Z" fill="url(#paint11_linear_1029_1737)"/>
<path d="M51.3429 205.119C54.9334 205.43 61.165 205.934 66.0776 206.15C69.0308 206.28 70.7309 205.991 71.71 205.599C71.7083 205.709 71.7053 205.813 71.7009 205.91C71.6777 206.427 71.2577 206.841 70.7355 206.87C61.4527 207.388 54.0702 207.049 51.442 206.889C50.8985 206.856 50.5746 206.266 50.8525 205.802C50.9916 205.571 51.16 205.344 51.3429 205.119Z" fill="url(#paint12_linear_1029_1737)"/>
<path d="M66.0775 206.15C61.1648 205.934 54.9333 205.43 51.3428 205.119C54.8729 200.788 66.0775 197.869 66.0775 197.869H69.2421C71.4186 201.006 71.7338 203.993 71.71 205.599C70.7307 205.991 69.0307 206.28 66.0775 206.15Z" fill="url(#paint13_linear_1029_1737)"/>
<path d="M69.7752 192.703L69.479 198.563C69.4469 199.198 68.9719 199.731 68.3363 199.822C67.704 199.912 66.8571 199.924 65.9591 199.625C65.4067 199.441 64.9965 198.975 64.8946 198.407L63.8713 192.703H69.7752Z" fill="url(#paint14_linear_1029_1737)"/>
<path d="M106.503 211.879C108.061 211.599 108.765 210.553 109.06 209.436C109.062 209.446 109.064 209.456 109.066 209.466C109.295 210.645 108.764 211.867 107.702 212.448C106.419 213.15 105.016 213.27 103.927 213.212C102.758 213.149 101.685 212.524 101.096 211.524L101.087 211.509C102.26 212.259 103.907 212.347 106.503 211.879Z" fill="url(#paint15_linear_1029_1737)"/>
<path d="M99.1623 194.508H101.772C105.747 194.403 108.243 205.239 109.061 209.436C108.765 210.553 108.061 211.599 106.504 211.879C103.907 212.347 102.26 212.259 101.087 211.509C98.9397 207.856 97.8749 202.507 97.3631 199.385C96.781 195.835 99.1623 194.508 99.1623 194.508Z" fill="url(#paint16_linear_1029_1737)"/>
<path d="M101.437 189.069L102.886 194.833C103.064 195.539 102.725 196.27 102.072 196.606C101.261 197.022 100.12 197.459 99.0709 197.332C98.5776 197.273 98.1678 196.925 98.0047 196.461L95.8772 190.397L101.437 189.069Z" fill="url(#paint17_linear_1029_1737)"/>
<path d="M50.4587 113.157C50.4587 113.157 63.4091 194.108 63.1958 194.553C63.1958 194.553 66.7726 196.178 70.6718 194.76C70.6718 194.76 69.5008 151.486 66.7567 134.894C66.7567 134.894 88.8585 173.572 95.8772 192.845C95.8772 192.845 99.5379 192.408 102.568 190.414C102.568 190.414 78.7707 120.795 72.4217 111.522L50.4587 113.157Z" fill="url(#paint18_linear_1029_1737)"/>
<path d="M48.417 56.6336C47.4917 56.688 46.5791 56.8655 45.7042 57.1686C36.2133 60.4575 28.76 59.6299 23.0302 57.0411C21.7021 58.8042 19.5633 62.4712 18.6316 68.6351C29.0614 76.3978 42.178 74.3523 46.4675 73.3932C45.3447 81.7249 45.3552 94.9047 49.9408 114.226C50.0608 114.732 50.4954 115.106 51.0185 115.149C53.9487 115.391 63.7564 115.967 73.1863 113.848C73.6095 113.753 73.841 113.298 73.6728 112.902L73.5871 112.701C72.8008 110.851 72.4493 108.851 72.562 106.847C72.9041 100.761 74.5417 87.0087 78.0322 77.5837C78.2352 77.9271 78.4246 78.2658 78.608 78.6026C79.2399 72.4037 81.6142 66.3059 83.2906 60.1565C69.6346 55.8162 53.396 56.3417 48.417 56.6336Z" fill="url(#paint19_linear_1029_1737)"/>
<path d="M69.7202 45.3782C69.7202 45.3782 70.6742 55.4647 71.5142 58.4483C71.6416 58.9009 71.445 59.3782 71.0338 59.6132C69.6082 60.4278 66.1891 61.7564 61.5123 59.4643C60.7546 59.093 60.2991 58.3032 60.3344 57.4674L60.7465 47.7206L69.7202 45.3782Z" fill="url(#paint20_linear_1029_1737)"/>
<path d="M60.5408 32.4745C60.5408 32.4745 57.4896 39.4836 57.2847 43.1624C57.0798 46.8413 56.2871 49.2284 60.5408 49.9692C64.7945 50.71 68.3779 48.591 70.3192 44.9265C70.3192 44.9265 73.3609 39.2798 72.6785 36.9673C71.9962 34.6548 60.5408 32.4745 60.5408 32.4745Z" fill="url(#paint21_linear_1029_1737)"/>
<path d="M68.8657 42.2917L68.6235 42.1849C68.3152 42.049 68.1833 41.6821 68.3382 41.3829C68.938 40.2239 70.1074 37.5681 68.5967 36.9485C67.1734 36.3648 65.6333 36.0371 64.17 35.5686C62.8119 35.1338 60.1736 34.6786 59.4653 33.2455C59.2606 32.8312 59.4849 32.3424 59.7058 31.9364C60.1192 31.1764 60.5327 30.4164 60.9461 29.6564C61.2955 29.0139 61.6573 28.3561 62.2141 27.8821C63.4889 26.7968 65.0101 27.7494 66.421 28.0098C71.6687 28.9783 75.1382 31.1019 75.2246 34.7281C75.23 34.9585 75.4751 35.0866 75.6719 34.9667C76.0594 34.7306 76.6794 34.6197 77.508 35.3165C78.9492 36.5284 78.3595 39.6718 75.2001 42.2576C75.0501 42.3804 75.0512 42.6148 75.2138 42.7205C75.7865 43.0933 76.6403 43.9805 74.428 45.1632C72.1396 46.3864 70.4308 46.286 69.7729 46.1774C69.6091 46.1503 69.5037 45.9919 69.5394 45.8299L70.2416 42.6428C70.2814 42.4623 70.1441 42.2915 69.9593 42.2915H68.8657V42.2917Z" fill="url(#paint22_linear_1029_1737)"/>
<path d="M68.7334 42.9642C68.7334 42.9642 69.8974 38.487 71.9048 39.7423C73.9121 40.9977 70.8632 44.7589 69.2493 44.9265L68.7334 42.9642Z" fill="url(#paint23_linear_1029_1737)"/>
<path d="M58.0173 33.6659C63.0079 18.8706 83.7135 28.1976 76.8861 41.0889C69.7184 37.8431 61.3693 32.6423 58.0173 33.6659Z" fill="url(#paint24_linear_1029_1737)"/>
<path d="M70.2206 37.5997L57.2073 39.3097C56.8768 39.3532 56.5468 39.2202 56.3405 38.9583C54.8392 37.0529 52.9245 35.995 50.6828 35.6081C50.3991 35.5591 50.3902 35.1542 50.6705 35.0887L58.5207 33.2549C58.5294 33.2529 58.5383 33.2514 58.5472 33.2506C62.5529 32.91 66.4431 34.7193 70.2922 37.293C70.4205 37.3789 70.3737 37.5796 70.2206 37.5997Z" fill="url(#paint25_linear_1029_1737)"/>
<path d="M73.0506 112.308C76.0352 112.364 78.4851 109.96 78.4851 106.975V83.2453C78.4851 80.1275 75.9795 77.5906 72.862 77.5567C63.5054 77.4548 44.2079 77.4497 28.4183 78.7804C26.2637 78.9619 24.5877 80.7279 24.5096 82.8888L23.0339 105.831C22.9242 108.865 25.3234 111.401 28.3594 111.458L73.0506 112.308Z" fill="url(#paint26_linear_1029_1737)"/>
<path d="M73.066 85.8128C73.1058 87.832 73.0459 91.0357 72.9968 93.1056C72.9712 94.1825 72.0258 95.0031 70.9559 94.8777L63.2558 93.9752C62.23 93.855 61.5073 92.9095 61.6604 91.8881L62.6055 85.5828C62.7397 84.6877 63.5087 84.0254 64.4138 84.0254H71.2379C72.2323 84.0254 73.0464 84.8186 73.066 85.8128Z" fill="white"/>
<path opacity="0.37" d="M52.9429 97.7622L46.5195 98.4551C45.6207 98.5522 44.8538 97.8108 44.92 96.9093L46.3242 77.8018C49.0169 77.7164 51.6728 77.6541 54.2356 77.6104V96.3224C54.2356 97.062 53.6782 97.6828 52.9429 97.7622Z" fill="white"/>
<path d="M50.3101 94.4504C50.2904 94.7941 50.0056 95.0591 49.6657 95.0591C49.653 95.0591 49.6404 95.0586 49.6278 95.0579C49.2716 95.0373 48.9994 94.7319 49.0204 94.3756L49.9889 77.6993C50.4233 77.6885 50.854 77.6788 51.2848 77.6692L50.3101 94.4504Z" fill="white"/>
<path d="M69.505 91.832C69.6177 91.832 69.7127 91.7445 69.7199 91.63L70.053 86.3775C70.0606 86.2589 69.9706 86.1566 69.8516 86.149C69.7266 86.1393 69.6307 86.2319 69.6231 86.3506L69.29 91.6032C69.2824 91.7218 69.3724 91.824 69.4914 91.8316C69.4961 91.832 69.5007 91.832 69.505 91.832Z" fill="url(#paint27_linear_1029_1737)"/>
<path d="M68.8193 91.8319C68.935 91.8319 69.0309 91.7402 69.0346 91.6237L69.2092 86.2706C69.213 86.1515 69.1196 86.0518 69.001 86.048C68.8638 86.0413 68.7827 86.1376 68.7785 86.2562L68.6039 91.6094C68.6001 91.7284 68.6935 91.8281 68.8121 91.8319C68.8121 91.8319 68.8171 91.8319 68.8193 91.8319Z" fill="url(#paint28_linear_1029_1737)"/>
<path d="M67.8897 91.8315C67.7707 91.826 67.679 91.7251 67.6848 91.6065C67.7702 89.8083 67.933 86.3783 67.9355 86.2614C67.9364 86.1436 68.0327 86.0481 68.1508 86.0481C68.2699 86.0481 68.3663 86.1444 68.3663 86.2635C68.3663 86.3522 68.1568 90.7468 68.1148 91.6267C68.1093 91.7424 68.0142 91.832 67.8998 91.832C67.8964 91.832 67.893 91.832 67.8897 91.8315Z" fill="url(#paint29_linear_1029_1737)"/>
<path d="M66.464 92.0473C66.695 92.0473 66.886 91.8643 66.8939 91.6317C67.0761 86.4452 67.0441 86.3282 67.023 86.2508C66.9608 86.0208 66.7218 85.8858 66.4942 85.9484C66.2834 86.006 66.1519 86.2105 66.1805 86.4212C66.1944 86.7329 66.098 89.7506 66.0332 91.6015C66.0248 91.8391 66.2108 92.039 66.4484 92.047C66.4535 92.0473 66.459 92.0473 66.464 92.0473Z" fill="url(#paint30_linear_1029_1737)"/>
<path d="M65.5305 91.832C65.6496 91.832 65.7459 91.7356 65.7459 91.6165V86.364C65.7459 86.2449 65.6496 86.1486 65.5305 86.1486C65.4115 86.1486 65.3152 86.2449 65.3152 86.364V91.6165C65.3152 91.7356 65.4114 91.832 65.5305 91.832Z" fill="url(#paint31_linear_1029_1737)"/>
<path d="M64.7767 91.832C64.8937 91.832 64.9896 91.7386 64.9921 91.6216C65.0334 89.7965 65.1297 86.8153 65.2159 86.457C65.2537 86.3893 65.2533 86.3034 65.2079 86.2336C65.1427 86.1335 65.0094 86.1066 64.9096 86.1718C64.7922 86.2487 64.6808 86.3216 64.5613 91.6115C64.5589 91.7305 64.653 91.829 64.7717 91.832H64.7767Z" fill="url(#paint32_linear_1029_1737)"/>
<path d="M70.6637 92.3102C70.8913 92.3102 71.0814 92.1318 71.0936 91.9017L71.3809 86.3862C71.3931 86.1486 71.2105 85.9463 70.9729 85.9336C70.7474 85.9176 70.5329 86.104 70.5203 86.3416L70.233 91.8571C70.2208 92.0948 70.4033 92.2971 70.641 92.3097C70.6485 92.3102 70.6561 92.3102 70.6637 92.3102Z" fill="url(#paint33_linear_1029_1737)"/>
<path d="M57.1622 78.4385C59.3965 78.4809 61.2305 76.6815 61.2305 74.4468V56.6826C61.2305 54.3486 59.3548 52.4495 57.0211 52.4241C50.0167 52.3478 35.5706 52.3441 23.7505 53.3401C22.1376 53.476 20.8829 54.798 20.8245 56.4156L19.7198 73.5901C19.6376 75.8617 21.4336 77.7596 23.7064 77.8028L57.1622 78.4385Z" fill="url(#paint34_linear_1029_1737)"/>
<path d="M57.1738 58.6045C57.2035 60.1161 57.1586 62.5143 57.1219 64.0638C57.1028 64.87 56.3951 65.4843 55.5942 65.3904L49.8298 64.7149C49.0619 64.6249 48.5208 63.9171 48.6354 63.1525L49.3429 58.4323C49.4434 57.7622 50.0191 57.2665 50.6966 57.2665H55.8052C56.5496 57.2665 57.1591 57.8603 57.1738 58.6045Z" fill="white"/>
<path opacity="0.37" d="M42.1095 67.5498L37.301 68.0685C36.6281 68.1412 36.0541 67.5862 36.1036 66.9113L37.1548 52.6074C39.1704 52.5435 41.1587 52.4969 43.0773 52.4642V66.4719C43.0773 67.0257 42.6601 67.4904 42.1095 67.5498Z" fill="white"/>
<path d="M40.1387 65.0706C40.1239 65.3279 39.9107 65.5263 39.6563 65.5263C39.6468 65.5263 39.6374 65.526 39.6279 65.5253C39.3612 65.5099 39.1575 65.2813 39.1732 65.0146L39.8982 52.5307C40.2233 52.5227 40.5458 52.5154 40.8683 52.5082L40.1387 65.0706Z" fill="white"/>
<path d="M54.5079 63.1104C54.5923 63.1104 54.6635 63.0449 54.6689 62.9592L54.9182 59.0271C54.9239 58.9384 54.8565 58.8618 54.7674 58.8561C54.6738 58.8489 54.6021 58.9182 54.5964 59.007L54.347 62.9391C54.3414 63.0279 54.4087 63.1044 54.4979 63.1101C54.5013 63.1104 54.5047 63.1104 54.5079 63.1104Z" fill="url(#paint35_linear_1029_1737)"/>
<path d="M53.9949 63.1104C54.0814 63.1104 54.1533 63.0418 54.1561 62.9545L54.2867 58.9472C54.2895 58.8581 54.2196 58.7835 54.1308 58.7806C54.0281 58.7756 53.9674 58.8477 53.9642 58.9365L53.8336 62.9439C53.8307 63.033 53.9007 63.1076 53.9895 63.1105C53.9895 63.1105 53.9932 63.1104 53.9949 63.1104Z" fill="url(#paint36_linear_1029_1737)"/>
<path d="M53.2988 63.1101C53.2097 63.106 53.1411 63.0304 53.1455 62.9416C53.2094 61.5954 53.3313 59.0278 53.3331 58.9403C53.3337 58.8521 53.4058 58.7806 53.4943 58.7806C53.5834 58.7806 53.6556 58.8527 53.6556 58.9419C53.6556 59.0083 53.4988 62.2981 53.4673 62.9568C53.4632 63.0434 53.392 63.1105 53.3063 63.1105C53.3038 63.1104 53.3013 63.1104 53.2988 63.1101Z" fill="url(#paint37_linear_1029_1737)"/>
<path d="M52.2316 63.2716C52.4045 63.2716 52.5475 63.1346 52.5535 62.9605C52.6898 59.0778 52.6659 58.9903 52.6501 58.9323C52.6035 58.7601 52.4247 58.6591 52.2543 58.706C52.0965 58.7491 51.998 58.9022 52.0194 59.0599C52.0298 59.2932 51.9577 61.5523 51.9091 62.9379C51.9028 63.1158 52.042 63.2654 52.2199 63.2714C52.2238 63.2716 52.2278 63.2716 52.2316 63.2716Z" fill="url(#paint38_linear_1029_1737)"/>
<path d="M51.5328 63.1104C51.6219 63.1104 51.6941 63.0383 51.6941 62.9491V59.017C51.6941 58.9279 51.6219 58.8558 51.5328 58.8558C51.4437 58.8558 51.3716 58.9279 51.3716 59.017V62.9491C51.3716 63.0383 51.4436 63.1104 51.5328 63.1104Z" fill="url(#paint39_linear_1029_1737)"/>
<path d="M50.9684 63.1104C51.056 63.1104 51.1278 63.0405 51.1296 62.9529C51.1605 61.5866 51.2326 59.3549 51.2972 59.0867C51.3255 59.036 51.3252 58.9718 51.2912 58.9195C51.2423 58.8445 51.1425 58.8244 51.0679 58.8732C50.98 58.9308 50.8966 58.9853 50.8072 62.9454C50.8053 63.0345 50.8758 63.1082 50.9646 63.1104H50.9684Z" fill="url(#paint40_linear_1029_1737)"/>
<path d="M55.3753 63.4684C55.5457 63.4684 55.688 63.3349 55.6972 63.1627L55.9122 59.0338C55.9214 58.8558 55.7847 58.7044 55.6068 58.6949C55.438 58.683 55.2774 58.8225 55.268 59.0004L55.0529 63.1293C55.0437 63.3072 55.1804 63.4586 55.3584 63.4681C55.3641 63.4684 55.3697 63.4684 55.3753 63.4684Z" fill="url(#paint41_linear_1029_1737)"/>
<path d="M18.1424 62.6948C19.1253 62.4537 21.3328 59.4671 21.5677 60.5583C21.8025 61.6494 21.1367 63.0331 21.2355 63.497C21.3343 63.961 22.0752 66.56 21.4864 67.6505C21.0615 68.4375 20.2276 70.9125 19.7962 72.2297C19.653 72.6667 19.5365 73.2441 19.0793 73.1927C18.6222 73.1412 18.2681 72.5261 18.2255 72.0681C18.2085 71.8844 17.1596 62.9358 18.1424 62.6948Z" fill="url(#paint42_linear_1029_1737)"/>
<path d="M88.5608 66.3798C87.3505 63.6024 83.4927 60.2207 83.2909 60.1566C81.6145 66.306 78.6644 71.3849 78.0325 77.5838C82.1686 85.1809 81.2204 94.1405 78.6373 98.4975C79.9075 100.384 81.393 102.953 82.6799 106.148C98.5832 96.6284 92.2878 74.9324 88.5608 66.3798Z" fill="url(#paint43_linear_1029_1737)"/>
<path d="M68.1341 113.036L54.365 112.736C54.365 112.736 66.372 109.342 67.117 110.267C67.117 110.267 74.559 105.376 78.6373 98.4973C79.9075 100.384 81.3928 102.953 82.6798 106.148C79.0236 108.294 74.2221 112.023 68.1341 113.036Z" fill="url(#paint44_linear_1029_1737)"/>
<path d="M68.5223 110.652C68.5223 110.652 68.8063 116.138 61.6049 115.341C57.6911 114.908 51.3726 111.259 51.3726 111.259C51.3726 111.259 67.8416 111.215 68.5223 110.652Z" fill="url(#paint45_linear_1029_1737)"/>
<defs>
<linearGradient id="paint0_linear_1029_1737" x1="224.679" y1="240.683" x2="79.525" y2="86.1641" gradientUnits="userSpaceOnUse">
<stop stop-color="#DAE3FE"/>
<stop offset="1" stop-color="#E9EFFD"/>
</linearGradient>
<linearGradient id="paint1_linear_1029_1737" x1="133.108" y1="41.7885" x2="132.357" y2="142.788" gradientUnits="userSpaceOnUse">
<stop stop-color="#09005D"/>
<stop offset="1" stop-color="#1A0F91"/>
</linearGradient>
<linearGradient id="paint2_linear_1029_1737" x1="149.736" y1="48.561" x2="243.965" y2="-78.1077" gradientUnits="userSpaceOnUse">
<stop stop-color="#4F52FF"/>
<stop offset="1" stop-color="#4042E2"/>
</linearGradient>
<linearGradient id="paint3_linear_1029_1737" x1="175.354" y1="83.3371" x2="276.792" y2="-92.2481" gradientUnits="userSpaceOnUse">
<stop stop-color="#3E30CB"/>
<stop offset="1" stop-color="#1D129D"/>
</linearGradient>
<linearGradient id="paint4_linear_1029_1737" x1="165.282" y1="77.5185" x2="266.72" y2="-98.0661" gradientUnits="userSpaceOnUse">
<stop stop-color="#3E30CB"/>
<stop offset="1" stop-color="#1D129D"/>
</linearGradient>
<linearGradient id="paint5_linear_1029_1737" x1="103.904" y1="42.0598" x2="205.342" y2="-133.526" gradientUnits="userSpaceOnUse">
<stop stop-color="#3E30CB"/>
<stop offset="1" stop-color="#1D129D"/>
</linearGradient>
<linearGradient id="paint6_linear_1029_1737" x1="127.117" y1="55.4702" x2="228.555" y2="-120.115" gradientUnits="userSpaceOnUse">
<stop stop-color="#3E30CB"/>
<stop offset="1" stop-color="#1D129D"/>
</linearGradient>
<linearGradient id="paint7_linear_1029_1737" x1="153.181" y1="70.5274" x2="254.618" y2="-105.058" gradientUnits="userSpaceOnUse">
<stop stop-color="#3E30CB"/>
<stop offset="1" stop-color="#1D129D"/>
</linearGradient>
<linearGradient id="paint8_linear_1029_1737" x1="135.462" y1="72.7084" x2="135.462" y2="123.685" gradientUnits="userSpaceOnUse">
<stop stop-color="#3E30CB"/>
<stop offset="1" stop-color="#1D129D"/>
</linearGradient>
<linearGradient id="paint9_linear_1029_1737" x1="312.069" y1="-11.3897" x2="128.069" y2="137.962" gradientUnits="userSpaceOnUse">
<stop stop-color="#FF928E"/>
<stop offset="1" stop-color="#FE7062"/>
</linearGradient>
<linearGradient id="paint10_linear_1029_1737" x1="266.799" y1="-67.163" x2="82.7984" y2="82.1885" gradientUnits="userSpaceOnUse">
<stop stop-color="#FF928E"/>
<stop offset="1" stop-color="#FE7062"/>
</linearGradient>
<linearGradient id="paint11_linear_1029_1737" x1="158.366" y1="39.8515" x2="119.747" y2="88.2532" gradientUnits="userSpaceOnUse">
<stop stop-color="#FF928E"/>
<stop offset="0.6733" stop-color="#FE7B70"/>
<stop offset="1" stop-color="#FE7062"/>
</linearGradient>
<linearGradient id="paint12_linear_1029_1737" x1="71.71" y1="206.133" x2="50.751" y2="206.133" gradientUnits="userSpaceOnUse">
<stop stop-color="#4F52FF"/>
<stop offset="1" stop-color="#4042E2"/>
</linearGradient>
<linearGradient id="paint13_linear_1029_1737" x1="71.7111" y1="202.025" x2="51.3428" y2="202.025" gradientUnits="userSpaceOnUse">
<stop stop-color="#09005D"/>
<stop offset="1" stop-color="#1A0F91"/>
</linearGradient>
<linearGradient id="paint14_linear_1029_1737" x1="69.7751" y1="196.29" x2="63.8714" y2="196.29" gradientUnits="userSpaceOnUse">
<stop stop-color="#FEBBBA"/>
<stop offset="1" stop-color="#FF928E"/>
</linearGradient>
<linearGradient id="paint15_linear_1029_1737" x1="109.119" y1="211.33" x2="101.087" y2="211.33" gradientUnits="userSpaceOnUse">
<stop stop-color="#4F52FF"/>
<stop offset="1" stop-color="#4042E2"/>
</linearGradient>
<linearGradient id="paint16_linear_1029_1737" x1="109.061" y1="203.337" x2="97.2714" y2="203.337" gradientUnits="userSpaceOnUse">
<stop stop-color="#09005D"/>
<stop offset="1" stop-color="#1A0F91"/>
</linearGradient>
<linearGradient id="paint17_linear_1029_1737" x1="102.933" y1="193.212" x2="95.8773" y2="193.212" gradientUnits="userSpaceOnUse">
<stop stop-color="#FEBBBA"/>
<stop offset="1" stop-color="#FF928E"/>
</linearGradient>
<linearGradient id="paint18_linear_1029_1737" x1="139.806" y1="30.3318" x2="82.6507" y2="140.008" gradientUnits="userSpaceOnUse">
<stop stop-color="#09005D"/>
<stop offset="1" stop-color="#1A0F91"/>
</linearGradient>
<linearGradient id="paint19_linear_1029_1737" x1="18.6316" y1="85.9257" x2="83.2906" y2="85.9257" gradientUnits="userSpaceOnUse">
<stop stop-color="#090056"/>
<stop offset="1" stop-color="#020039"/>
</linearGradient>
<linearGradient id="paint20_linear_1029_1737" x1="68.1733" y1="68.0903" x2="65.1161" y2="52.0405" gradientUnits="userSpaceOnUse">
<stop stop-color="#FEBBBA"/>
<stop offset="1" stop-color="#FF928E"/>
</linearGradient>
<linearGradient id="paint21_linear_1029_1737" x1="59.9012" y1="38.6441" x2="77.3439" y2="51.9904" gradientUnits="userSpaceOnUse">
<stop stop-color="#FEBBBA"/>
<stop offset="1" stop-color="#FF928E"/>
</linearGradient>
<linearGradient id="paint22_linear_1029_1737" x1="73.9923" y1="29.4842" x2="57.7471" y2="50.3997" gradientUnits="userSpaceOnUse">
<stop stop-color="#09005D"/>
<stop offset="1" stop-color="#1A0F91"/>
</linearGradient>
<linearGradient id="paint23_linear_1029_1737" x1="62.0646" y1="35.8164" x2="79.5074" y2="49.1628" gradientUnits="userSpaceOnUse">
<stop stop-color="#FEBBBA"/>
<stop offset="1" stop-color="#FF928E"/>
</linearGradient>
<linearGradient id="paint24_linear_1029_1737" x1="115.864" y1="8.20547" x2="73.0136" y2="32.4357" gradientUnits="userSpaceOnUse">
<stop stop-color="#FF928E"/>
<stop offset="1" stop-color="#FE7062"/>
</linearGradient>
<linearGradient id="paint25_linear_1029_1737" x1="114.493" y1="5.78279" x2="71.6433" y2="30.0127" gradientUnits="userSpaceOnUse">
<stop stop-color="#FF928E"/>
<stop offset="1" stop-color="#FE7062"/>
</linearGradient>
<linearGradient id="paint26_linear_1029_1737" x1="133.177" y1="38.2968" x2="22.2903" y2="115.659" gradientUnits="userSpaceOnUse">
<stop stop-color="#FF928E"/>
<stop offset="1" stop-color="#FE7062"/>
</linearGradient>
<linearGradient id="paint27_linear_1029_1737" x1="67.0676" y1="85.2065" x2="80.8514" y2="105.236" gradientUnits="userSpaceOnUse">
<stop stop-color="#09005D"/>
<stop offset="1" stop-color="#1A0F91"/>
</linearGradient>
<linearGradient id="paint28_linear_1029_1737" x1="66.572" y1="85.5476" x2="80.3557" y2="105.577" gradientUnits="userSpaceOnUse">
<stop stop-color="#09005D"/>
<stop offset="1" stop-color="#1A0F91"/>
</linearGradient>
<linearGradient id="paint29_linear_1029_1737" x1="65.974" y1="85.9591" x2="79.7578" y2="105.989" gradientUnits="userSpaceOnUse">
<stop stop-color="#09005D"/>
<stop offset="1" stop-color="#1A0F91"/>
</linearGradient>
<linearGradient id="paint30_linear_1029_1737" x1="64.9395" y1="86.6709" x2="78.7232" y2="106.7" gradientUnits="userSpaceOnUse">
<stop stop-color="#09005D"/>
<stop offset="1" stop-color="#1A0F91"/>
</linearGradient>
<linearGradient id="paint31_linear_1029_1737" x1="64.2574" y1="87.1403" x2="78.0412" y2="107.17" gradientUnits="userSpaceOnUse">
<stop stop-color="#09005D"/>
<stop offset="1" stop-color="#1A0F91"/>
</linearGradient>
<linearGradient id="paint32_linear_1029_1737" x1="63.834" y1="87.4317" x2="77.6176" y2="107.461" gradientUnits="userSpaceOnUse">
<stop stop-color="#09005D"/>
<stop offset="1" stop-color="#1A0F91"/>
</linearGradient>
<linearGradient id="paint33_linear_1029_1737" x1="67.7767" y1="84.7184" x2="81.5604" y2="104.748" gradientUnits="userSpaceOnUse">
<stop stop-color="#09005D"/>
<stop offset="1" stop-color="#1A0F91"/>
</linearGradient>
<linearGradient id="paint34_linear_1029_1737" x1="109.735" y1="17.7576" x2="26.7258" y2="75.6713" gradientUnits="userSpaceOnUse">
<stop stop-color="#FF928E"/>
<stop offset="1" stop-color="#FE7062"/>
</linearGradient>
<linearGradient id="paint35_linear_1029_1737" x1="52.6833" y1="58.1506" x2="63.0018" y2="73.1447" gradientUnits="userSpaceOnUse">
<stop stop-color="#09005D"/>
<stop offset="1" stop-color="#1A0F91"/>
</linearGradient>
<linearGradient id="paint36_linear_1029_1737" x1="52.3125" y1="58.4059" x2="62.6311" y2="73.4" gradientUnits="userSpaceOnUse">
<stop stop-color="#09005D"/>
<stop offset="1" stop-color="#1A0F91"/>
</linearGradient>
<linearGradient id="paint37_linear_1029_1737" x1="51.8647" y1="58.714" x2="62.1833" y2="73.7079" gradientUnits="userSpaceOnUse">
<stop stop-color="#09005D"/>
<stop offset="1" stop-color="#1A0F91"/>
</linearGradient>
<linearGradient id="paint38_linear_1029_1737" x1="51.0904" y1="59.2469" x2="61.4089" y2="74.2409" gradientUnits="userSpaceOnUse">
<stop stop-color="#09005D"/>
<stop offset="1" stop-color="#1A0F91"/>
</linearGradient>
<linearGradient id="paint39_linear_1029_1737" x1="50.5797" y1="59.5982" x2="60.8982" y2="74.5924" gradientUnits="userSpaceOnUse">
<stop stop-color="#09005D"/>
<stop offset="1" stop-color="#1A0F91"/>
</linearGradient>
<linearGradient id="paint40_linear_1029_1737" x1="50.2627" y1="59.8164" x2="60.5811" y2="74.8104" gradientUnits="userSpaceOnUse">
<stop stop-color="#09005D"/>
<stop offset="1" stop-color="#1A0F91"/>
</linearGradient>
<linearGradient id="paint41_linear_1029_1737" x1="53.2142" y1="57.7852" x2="63.5327" y2="72.7792" gradientUnits="userSpaceOnUse">
<stop stop-color="#09005D"/>
<stop offset="1" stop-color="#1A0F91"/>
</linearGradient>
<linearGradient id="paint42_linear_1029_1737" x1="25.0965" y1="49.1624" x2="-0.705084" y2="126.561" gradientUnits="userSpaceOnUse">
<stop stop-color="#FEBBBA"/>
<stop offset="1" stop-color="#FF928E"/>
</linearGradient>
<linearGradient id="paint43_linear_1029_1737" x1="78.0325" y1="83.1521" x2="92.9825" y2="83.1521" gradientUnits="userSpaceOnUse">
<stop stop-color="#090056"/>
<stop offset="1" stop-color="#020039"/>
</linearGradient>
<linearGradient id="paint44_linear_1029_1737" x1="-391.054" y1="-1066.01" x2="-417.83" y2="-1134.49" gradientUnits="userSpaceOnUse">
<stop stop-color="#FEBBBA"/>
<stop offset="1" stop-color="#FF928E"/>
</linearGradient>
<linearGradient id="paint45_linear_1029_1737" x1="65.3417" y1="97.6376" x2="92.1171" y2="29.1546" gradientUnits="userSpaceOnUse">
<stop stop-color="#FEBBBA"/>
<stop offset="1" stop-color="#FF928E"/>
</linearGradient>
</defs>
</svg>
